<svg width="144" height="143" viewBox="0 0 144 143" fill="none" xmlns="http://www.w3.org/2000/svg">
<path d="M76.9262 2.65674H59.9772C59.7337 2.65674 59.5363 2.85418 59.5363 3.0977V5.6908C59.5363 5.93432 59.7337 6.13176 59.9772 6.13176H60.4511C61.8612 6.13176 63.0047 7.27529 63.0047 8.68537V28.4627C63.0047 28.7062 62.8073 28.9037 62.5637 28.9037H62.5621L59.9805 28.8922H59.9789C59.7353 28.8922 59.5379 29.0896 59.5379 29.3331V32.0134C59.5379 32.2569 59.7353 32.4544 59.9789 32.4544H62.5654C62.8089 32.4544 63.0063 32.6518 63.0063 32.8954V72.8943C63.0063 74.3044 61.8628 75.4479 60.4527 75.4479H59.9789C59.7353 75.4479 59.5379 75.6454 59.5379 75.8889V78.1447C59.5379 78.3882 59.7353 78.5856 59.9789 78.5856H69.0152C69.2818 78.5856 69.4973 78.8012 69.4973 79.0677V84.0318C69.4973 84.4481 69.8346 84.787 70.2526 84.787H70.5685C70.9847 84.787 71.3237 84.4497 71.3237 84.0318V79.0677C71.3237 78.8012 71.5392 78.5856 71.8058 78.5856H77.4527C77.6962 78.5856 77.8937 78.3882 77.8937 78.1447V77.2924C77.8937 74.3784 80.2564 72.0157 83.1704 72.0157H84.0227C84.2662 72.0157 84.4636 71.8182 84.4636 71.5747V38.8368C84.4636 35.4259 82.7195 32.4166 80.0787 30.6494C79.8352 30.4865 79.8138 30.1262 80.0409 29.9386C82.4201 27.9741 83.9404 25.0042 83.9404 21.6854V9.66766C83.9404 9.42415 83.7429 9.2267 83.4994 9.2267H82.6471C79.7332 9.2267 77.3704 6.86395 77.3704 3.95V3.0977C77.3704 2.85418 77.173 2.65674 76.9295 2.65674M71.8288 28.9185C71.5507 28.9185 71.3237 28.6931 71.3237 28.4134V6.60563C71.3237 6.33908 71.5392 6.12353 71.8058 6.12353H73.7358C73.9398 6.12353 74.1126 6.26504 74.1636 6.46412C74.9155 9.37972 77.2158 11.6799 80.1314 12.4319C80.3304 12.4829 80.4719 12.6557 80.4719 12.8597V21.2412C80.4719 25.4797 77.0364 28.9168 72.7963 28.9168H71.8288V28.9185ZM66.9157 28.9218C66.6722 28.9218 66.4748 28.7243 66.4748 28.4808V8.68208C66.4748 7.99267 66.3481 7.33123 66.1177 6.72245C66.0091 6.43286 66.2181 6.12518 66.5274 6.12518H69.0169C69.2834 6.12518 69.499 6.34072 69.499 6.60727V28.4167C69.499 28.6947 69.2736 28.9201 68.9955 28.9201H66.9157V28.9218ZM71.8074 75.1156C71.5409 75.1156 71.3253 74.9 71.3253 74.6335V32.9579C71.3253 32.6798 71.5507 32.4544 71.8305 32.4544H74.1751C77.943 32.4544 80.9985 35.5082 80.9985 39.2777V68.3811C80.9985 68.5851 80.857 68.7578 80.6595 68.8088C77.7439 69.5608 75.4437 71.861 74.6901 74.7766C74.6391 74.9757 74.4663 75.1172 74.2623 75.1172H71.8091L71.8074 75.1156ZM66.6229 75.1156C66.1177 75.1156 65.8002 74.5742 66.0421 74.1316C66.3201 73.6232 66.4748 73.3221 66.4748 72.5603V32.8954C66.4748 32.6518 66.6722 32.4544 66.9157 32.4544H68.9955C69.2736 32.4544 69.5006 32.6798 69.5006 32.9579V74.6335C69.5006 74.9 69.2851 75.1156 69.0185 75.1156H66.6245H66.6229Z" fill="#24222C"/>
<path d="M42.3895 94.0308C35.7424 94.0308 30.3342 99.4389 30.3342 106.086C30.3342 112.733 35.7424 118.141 42.3895 118.141C49.0366 118.141 54.4448 112.733 54.4448 106.086C54.4448 99.4389 49.0366 94.0308 42.3895 94.0308ZM42.3895 114.671C37.6543 114.671 33.8026 110.82 33.8026 106.084C33.8026 101.349 37.6543 97.4975 42.3895 97.4975C47.1248 97.4975 50.9765 101.349 50.9765 106.084C50.9765 110.82 47.1248 114.671 42.3895 114.671Z" fill="#D94528"/>
<path d="M1.18811 95.0029C1.04003 95.0029 0.919922 95.123 0.919922 95.2728V98.0797C0.919922 98.2261 1.04003 98.3446 1.18811 98.3479C1.30493 98.3512 1.53692 98.3528 2.00419 98.3528C3.09998 98.3528 3.52776 98.9484 3.52776 99.5884V112.795C3.52776 113.435 3.09998 114.031 2.00419 114.031C1.53692 114.031 1.30493 114.033 1.18811 114.036C1.04168 114.039 0.919922 114.156 0.919922 114.304V117.11C0.919922 117.259 1.04003 117.379 1.18811 117.379H14.1878H15.611C16.6969 117.379 17.6989 117.256 18.5874 117.012C19.545 116.749 20.3808 116.341 21.0719 115.8C21.8057 115.226 22.3717 114.497 22.7534 113.633C23.1186 112.809 23.3029 111.867 23.3029 110.836C23.3029 109.87 23.1005 108.972 22.7007 108.166C22.3042 107.369 21.7431 106.683 21.0291 106.122C20.9155 106.033 20.7971 105.948 20.6753 105.865C20.5996 105.814 20.5355 105.66 20.6572 105.564C21.1673 105.169 22.4062 103.96 22.4062 101.27C22.4062 99.3285 21.6971 97.7111 20.3528 96.5956C19.0646 95.5261 17.2662 95.0046 14.8542 95.0046H1.18811V95.0029ZM7.79902 104.088C7.29884 104.088 6.89574 103.684 6.89574 103.185V99.5786C6.89574 98.8579 7.38934 98.3594 8.41602 98.3594H14.8575C16.409 98.3594 17.569 98.6407 18.2106 99.1755C18.5726 99.4749 19.053 100.02 19.053 101.268C19.053 101.586 18.9856 101.925 18.8523 102.279C18.7322 102.598 18.5348 102.891 18.2501 103.172C17.9556 103.463 17.3567 103.902 16.4699 104.074L7.80067 104.087L7.79902 104.088ZM8.1758 114.023C7.56374 114.023 6.89574 113.577 6.89574 112.914V108.35C6.89574 107.851 7.30049 107.447 7.79902 107.447L15.7278 107.422C15.9286 107.394 16.1293 107.379 16.3284 107.379C18.2419 107.379 19.9481 108.69 19.9481 110.834C19.9481 111.361 19.7836 114.023 15.6127 114.023H8.1758Z" fill="#D94528"/>
<path d="M142.785 95.0098H134.861C134.698 95.0098 134.568 95.1414 134.568 95.3043V98.0668C134.568 98.2297 134.7 98.3613 134.861 98.3613H135.511C135.909 98.3613 136.179 98.72 136.118 99.0819L131.715 106.03C131.59 106.249 131.369 106.358 131.149 106.358C130.929 106.358 130.71 106.249 130.583 106.03L126.19 99.0638C126.142 98.7101 126.409 98.3629 126.799 98.3629H127.449C127.612 98.3629 127.742 98.2313 127.742 98.0684V95.3059C127.742 95.143 127.61 95.0114 127.449 95.0114H119.525C119.362 95.0114 119.232 95.143 119.232 95.3059V98.0684C119.232 98.2313 119.364 98.3629 119.525 98.3629H121.428C121.805 98.3629 122.151 98.5637 122.342 98.8878L122.393 98.8927L129.069 109.839C129.331 110.305 129.469 110.83 129.469 111.364V112.983C129.392 113.549 128.949 114.033 127.962 114.033C127.496 114.033 127.264 114.036 127.146 114.038C127 114.041 126.878 114.158 126.878 114.306V117.111C126.878 117.261 126.998 117.381 127.146 117.381H130.06H132.268H135.183C135.331 117.381 135.452 117.261 135.452 117.111V114.306C135.452 114.16 135.331 114.041 135.183 114.038C135.067 114.035 134.835 114.033 134.367 114.033C133.271 114.033 132.844 113.437 132.844 112.797L132.822 112.834V111.364C132.822 110.83 132.961 110.305 133.222 109.839L139.919 98.8911L139.961 98.8878C140.152 98.5653 140.498 98.3629 140.875 98.3629H142.778C142.941 98.3629 143.073 98.2313 143.073 98.0684V95.3059C143.073 95.143 142.941 95.0114 142.778 95.0114" fill="#D94528"/>
<path d="M61.8348 95.0029C61.6868 95.0029 61.5667 95.123 61.5667 95.2728V98.0797C61.5667 98.2261 61.6868 98.3446 61.8348 98.3479C61.9517 98.3512 62.1836 98.3528 62.6509 98.3528C63.7451 98.3528 64.1745 98.9484 64.1745 99.5884V112.795C64.1745 113.435 63.7467 114.031 62.6509 114.031C62.1836 114.031 61.9517 114.033 61.8348 114.036C61.6884 114.039 61.5667 114.156 61.5667 114.304V117.11C61.5667 117.259 61.6868 117.379 61.8348 117.379H74.8345H76.2578C77.3437 117.379 78.3457 117.256 79.2341 117.012C80.1917 116.749 81.0275 116.341 81.7186 115.8C82.4524 115.226 83.0184 114.497 83.4001 113.633C83.7654 112.809 83.9496 111.867 83.9496 110.836C83.9496 109.87 83.7473 108.972 83.3475 108.166C82.9509 107.369 82.3899 106.683 81.6758 106.122C81.5623 106.033 81.4438 105.948 81.3221 105.865C81.2464 105.814 81.1822 105.66 81.304 105.564C81.814 105.169 83.0529 103.96 83.0529 101.27C83.0529 99.3285 82.3438 97.7111 80.9996 96.5956C79.7113 95.5261 77.9129 95.0046 75.5009 95.0046H61.8316L61.8348 95.0029ZM68.4457 104.088C67.9472 104.088 67.5425 103.684 67.5425 103.185V99.5786C67.5425 98.8579 68.0361 98.3594 69.0627 98.3594H75.5042C77.0557 98.3594 78.2157 98.6407 78.8574 99.1755C79.2193 99.4749 79.6998 100.02 79.6998 101.268C79.6998 101.586 79.6323 101.925 79.499 102.279C79.3789 102.598 79.1815 102.891 78.8969 103.172C78.6023 103.463 78.0034 103.902 77.1166 104.074L68.4457 104.087V104.088ZM68.8225 114.023C68.2105 114.023 67.5425 113.577 67.5425 112.914V108.35C67.5425 107.851 67.9472 107.447 68.4457 107.447L76.3746 107.422C76.5753 107.394 76.776 107.379 76.9751 107.379C78.8886 107.379 80.5948 108.69 80.5948 110.834C80.5948 111.361 80.4303 114.023 76.2594 114.023H68.8225Z" fill="#D94528"/>
<path d="M91.4613 95.0029C91.3132 95.0029 91.1931 95.123 91.1931 95.2728V98.0797C91.1931 98.2261 91.3132 98.3446 91.4613 98.3479C91.5781 98.3512 91.8101 98.3528 92.2774 98.3528C93.3715 98.3528 93.8009 98.9484 93.8009 99.5884V112.795C93.8009 113.435 93.3715 114.031 92.2774 114.031C91.8101 114.031 91.5781 114.033 91.4613 114.036C91.3149 114.039 91.1931 114.156 91.1931 114.304V117.11C91.1931 117.259 91.3132 117.379 91.4613 117.379H104.461H105.884C106.97 117.379 107.972 117.256 108.861 117.012C109.818 116.749 110.654 116.341 111.345 115.8C112.079 115.226 112.645 114.497 113.027 113.633C113.392 112.809 113.576 111.867 113.576 110.836C113.576 109.87 113.374 108.972 112.974 108.166C112.579 107.369 112.016 106.683 111.302 106.122C111.189 106.033 111.07 105.948 110.949 105.865C110.873 105.814 110.809 105.66 110.93 105.564C111.44 105.169 112.679 103.96 112.679 101.27C112.679 99.3285 111.97 97.7111 110.626 96.5956C109.338 95.5261 107.539 95.0046 105.127 95.0046H91.458L91.4613 95.0029ZM98.0722 104.088C97.572 104.088 97.1689 103.684 97.1689 103.185V99.5786C97.1689 98.8579 97.6625 98.3594 98.6892 98.3594H105.131C106.682 98.3594 107.842 98.6407 108.484 99.1755C108.846 99.4749 109.326 100.02 109.326 101.268C109.326 101.586 109.259 101.925 109.126 102.279C109.005 102.598 108.808 102.891 108.523 103.172C108.229 103.463 107.63 103.902 106.743 104.074L98.0739 104.087L98.0722 104.088ZM98.449 114.023C97.8369 114.023 97.1689 113.577 97.1689 112.914V108.35C97.1689 107.851 97.5737 107.447 98.0722 107.447L106.001 107.422C106.202 107.394 106.402 107.379 106.602 107.379C108.515 107.379 110.221 108.69 110.221 110.834C110.221 111.361 110.057 114.023 105.886 114.023H98.449Z" fill="#D94528"/>
<path d="M95.3181 140.699H97.5706L98.7536 139.516V135.626L97.7154 134.588H95.7377L95.2358 134.086V131.055L95.8841 130.407H97.0194L97.6677 131.055V132.401H98.7207V130.7L97.5377 129.517H95.3658L94.1828 130.7V134.445L95.221 135.483H97.1988L97.7006 135.985V139.178L97.0523 139.827H95.8364L95.1881 139.178V137.816H94.1351V139.517L95.3181 140.7V140.699ZM85.4624 140.699H89.1101V139.807H86.517V129.513H85.464V140.699H85.4624ZM75.9143 140.699H79.9174V139.807H76.9673V135.511H79.6739V134.619H76.9673V130.404H79.8845V129.512H75.9126V140.697L75.9143 140.699ZM67.6463 140.699H68.6993V130.405H70.6441V129.513H65.6998V130.405H67.6446V140.699H67.6463ZM57.5305 139.807L56.8823 139.159V131.053L57.5305 130.405H58.8929L59.5412 131.053V139.159L58.8929 139.807H57.5305ZM57.0123 140.699H59.4112L60.5942 139.516V130.696L59.4112 129.513H57.0123L55.8292 130.696V139.516L57.0123 140.699ZM45.2429 140.699H46.296V135.657H48.8578V140.699H49.9108V129.513H48.8578V134.652H46.296V129.513H45.2429V140.699Z" fill="#24222C"/>
</svg>
