<svg width="147" height="48" viewBox="0 0 147 48" fill="none" xmlns="http://www.w3.org/2000/svg">
<path d="M43.2079 0C36.3901 0 30.843 5.55549 30.843 12.3837C30.843 19.2118 36.3901 24.7673 43.2079 24.7673C50.0258 24.7673 55.5728 19.2118 55.5728 12.3837C55.5728 5.55549 50.0258 0 43.2079 0ZM43.2079 21.2045C38.3511 21.2045 34.4004 17.2479 34.4004 12.3837C34.4004 7.51944 38.3511 3.56282 43.2079 3.56282C48.0648 3.56282 52.0154 7.51944 52.0154 12.3837C52.0154 17.2479 48.0648 21.2045 43.2079 21.2045Z" fill="#FBF9EF"/>
<path d="M0.949148 0.99884C0.797266 0.99884 0.674072 1.12222 0.674072 1.27603V4.15941C0.674072 4.30983 0.797266 4.43152 0.949148 4.4349C1.06897 4.43828 1.30692 4.43997 1.78619 4.43997C2.91012 4.43997 3.3489 5.05181 3.3489 5.70927V19.276C3.3489 19.9335 2.91012 20.5453 1.78619 20.5453C1.30692 20.5453 1.06897 20.547 0.949148 20.5504C0.798953 20.5537 0.674072 20.6737 0.674072 20.8259V23.7075C0.674072 23.8613 0.797266 23.9847 0.949148 23.9847L14.2827 23.983L15.7425 23.9847C16.8563 23.9847 17.884 23.858 18.7953 23.6078C19.7775 23.3374 20.6348 22.9182 21.3436 22.3622C22.0962 21.7723 22.6768 21.0236 23.0683 20.1363C23.4429 19.2895 23.6319 18.3228 23.6319 17.263C23.6319 16.271 23.4244 15.3481 23.0143 14.52C22.6076 13.7019 22.0321 12.9972 21.2997 12.4208C21.1833 12.3295 21.0618 12.2417 20.9369 12.1572C20.8592 12.1048 20.7934 11.9459 20.9183 11.8479C21.4415 11.4422 22.7122 10.2 22.7122 7.43659C22.7122 5.44223 21.9849 3.7808 20.6061 2.63489C19.2847 1.5363 17.4402 1.00053 14.9662 1.00053L0.949148 0.99884ZM7.72986 10.3318C7.21683 10.3318 6.80338 9.91603 6.80338 9.40392V5.69913C6.80338 4.95885 7.30965 4.44673 8.3627 4.44673H14.9696C16.561 4.44673 17.7507 4.73575 18.4089 5.28504C18.7801 5.59265 19.2729 6.15209 19.2729 7.4349C19.2729 7.7611 19.2037 8.10927 19.067 8.47265C18.9438 8.80054 18.7413 9.10138 18.4494 9.3904C18.1473 9.68955 17.533 10.1408 16.6234 10.3166L7.72986 10.3318ZM8.11631 20.5368C7.48853 20.5368 6.80338 20.0788 6.80338 19.3977V14.7093C6.80338 14.1972 7.21852 13.7814 7.72986 13.7814L15.8623 13.756C16.0682 13.7273 16.2741 13.7121 16.4783 13.7121C18.4409 13.7121 20.191 15.0591 20.191 17.263C20.191 17.8039 20.0222 20.5385 15.7442 20.5385H8.11631V20.5368Z" fill="#FBF9EF"/>
<path d="M146.179 1.00566H138.052C137.885 1.00566 137.751 1.14087 137.751 1.30819V4.14594C137.751 4.31327 137.886 4.44848 138.052 4.44848H138.718C139.127 4.44848 139.403 4.81693 139.341 5.18876L134.825 12.3262C134.695 12.551 134.471 12.6626 134.245 12.6626C134.018 12.6626 133.794 12.551 133.664 12.3262L129.158 5.17015C129.109 4.80677 129.383 4.45017 129.783 4.45017H130.449C130.616 4.45017 130.75 4.31496 130.75 4.14763V1.30819C130.75 1.14087 130.615 1.00566 130.449 1.00566H122.323C122.156 1.00566 122.023 1.14087 122.023 1.30819V4.14594C122.023 4.31327 122.158 4.44848 122.323 4.44848H124.276C124.662 4.44848 125.017 4.65468 125.213 4.98763L125.265 4.9927L132.113 16.2372C132.381 16.7155 132.523 17.2546 132.523 17.8039V19.467C132.444 20.0484 131.99 20.5453 130.977 20.5453C130.5 20.5453 130.262 20.5487 130.14 20.5504C129.99 20.5538 129.865 20.6738 129.865 20.8259V23.7076C129.865 23.8614 129.988 23.9848 130.14 23.9848H138.384C138.536 23.9848 138.659 23.8614 138.659 23.7076V20.8259C138.659 20.6755 138.536 20.5538 138.384 20.5504C138.264 20.547 138.026 20.5453 137.547 20.5453C136.423 20.5453 135.984 19.9335 135.984 19.2761L135.962 19.3132V17.8039C135.962 17.2546 136.104 16.7155 136.373 16.2372L143.241 4.99101L143.285 4.98763C143.481 4.65637 143.835 4.44848 144.222 4.44848H146.174C146.341 4.44848 146.476 4.31327 146.476 4.14594V1.30819C146.481 1.14087 146.346 1.00566 146.179 1.00566Z" fill="#FBF9EF"/>
<path d="M63.1518 0.998901C62.9999 0.998901 62.8767 1.12228 62.8767 1.27609V4.15947C62.8767 4.30989 62.9999 4.43158 63.1518 4.43496C63.2716 4.43834 63.5096 4.44003 63.9888 4.44003C65.1111 4.44003 65.5515 5.05187 65.5515 5.70933V19.2761C65.5515 19.9335 65.1128 20.5454 63.9888 20.5454C63.5096 20.5454 63.2716 20.547 63.1518 20.5504C63.0016 20.5538 62.8767 20.6738 62.8767 20.8259V23.7076C62.8767 23.8614 62.9999 23.9848 63.1518 23.9848L76.4854 23.9831L77.9451 23.9848C79.0589 23.9848 80.0867 23.858 80.998 23.6079C81.9801 23.3375 82.8374 22.9183 83.5462 22.3623C84.2989 21.7724 84.8794 21.0237 85.2709 20.1363C85.6456 19.2896 85.8346 18.3228 85.8346 17.2631C85.8346 16.271 85.627 15.3482 85.2169 14.52C84.8102 13.702 84.2347 12.9972 83.5023 12.4209C83.3859 12.3296 83.2644 12.2417 83.1395 12.1572C83.0619 12.1048 82.9961 11.9459 83.1209 11.8479C83.6441 11.4423 84.9148 10.2 84.9148 7.43665C84.9148 5.44229 84.1875 3.78086 82.8087 2.63495C81.4874 1.53636 79.6428 1.00059 77.1688 1.00059L63.1518 0.998901ZM69.9325 10.3319C69.4212 10.3319 69.006 9.91609 69.006 9.40398V5.69919C69.006 4.95891 69.5123 4.4468 70.5653 4.4468H77.1722C78.7636 4.4468 79.9534 4.73581 80.6115 5.28511C80.9828 5.59271 81.4756 6.15215 81.4756 7.43496C81.4756 7.76116 81.4064 8.10933 81.2697 8.47271C81.1465 8.8006 80.944 9.10144 80.652 9.39046C80.3499 9.68961 79.7357 10.1409 78.826 10.3167L69.9325 10.3319ZM70.3189 20.5369C69.6912 20.5369 69.006 20.0789 69.006 19.3977V14.7093C69.006 14.1972 69.4212 13.7814 69.9325 13.7814L78.0649 13.7561C78.2708 13.7274 78.4767 13.7121 78.6809 13.7121C80.6436 13.7121 82.3936 15.0592 82.3936 17.2631C82.3936 17.8039 82.2248 20.5386 77.9468 20.5386H70.3189V20.5369Z" fill="#FBF9EF"/>
<path d="M93.5384 0.998901C93.3865 0.998901 93.2633 1.12228 93.2633 1.27609V4.15947C93.2633 4.30989 93.3865 4.43158 93.5384 4.43496C93.6582 4.43834 93.8962 4.44003 94.3754 4.44003C95.4977 4.44003 95.9381 5.05187 95.9381 5.70933V19.2761C95.9381 19.9335 95.4977 20.5454 94.3754 20.5454C93.8962 20.5454 93.6582 20.547 93.5384 20.5504C93.3882 20.5538 93.2633 20.6738 93.2633 20.8259V23.7076C93.2633 23.8614 93.3865 23.9848 93.5384 23.9848L106.872 23.9831L108.332 23.9848C109.446 23.9848 110.473 23.858 111.385 23.6079C112.367 23.3375 113.224 22.9183 113.933 22.3623C114.685 21.7724 115.266 21.0237 115.658 20.1363C116.032 19.2896 116.221 18.3228 116.221 17.2631C116.221 16.271 116.014 15.3482 115.604 14.52C115.198 13.702 114.621 12.9972 113.889 12.4209C113.772 12.3296 113.651 12.2417 113.526 12.1572C113.448 12.1048 113.383 11.9459 113.508 11.8479C114.031 11.4423 115.301 10.2 115.301 7.43665C115.301 5.44229 114.574 3.78086 113.195 2.63495C111.874 1.53636 110.029 1.00059 107.555 1.00059L93.5384 0.998901ZM100.319 10.3319C99.8061 10.3319 99.3926 9.91609 99.3926 9.40398V5.69919C99.3926 4.95891 99.8989 4.4468 100.952 4.4468H107.559C109.15 4.4468 110.34 4.73581 110.998 5.28511C111.369 5.59271 111.862 6.15215 111.862 7.43496C111.862 7.76116 111.793 8.10933 111.656 8.47271C111.533 8.8006 111.331 9.10144 111.039 9.39046C110.737 9.68961 110.122 10.1409 109.213 10.3167L100.319 10.3319ZM100.706 20.5369C100.078 20.5369 99.3926 20.0789 99.3926 19.3977V14.7093C99.3926 14.1972 99.8077 13.7814 100.319 13.7814L108.452 13.7561C108.657 13.7274 108.863 13.7121 109.068 13.7121C111.03 13.7121 112.78 15.0592 112.78 17.2631C112.78 17.8039 112.611 20.5386 108.333 20.5386H100.706V20.5369Z" fill="#FBF9EF"/>
<path d="M43.9049 46.3198V35.3582H44.7615L47.6643 43.6033V35.3582H48.5843V46.3198H47.7277L44.8249 38.0272V46.3198H43.9049Z" fill="#FBF9EF"/>
<path d="M51.2064 46.3198L53.1099 35.3582H54.601L56.5044 46.3198H55.4892L54.9658 43.1108H52.6975L52.1899 46.3198H51.2064ZM53.8237 36.0255L52.8402 42.1894H54.823L53.8237 36.0255Z" fill="#FBF9EF"/>
<path d="M59.9551 46.3198L58.7971 45.1601V43.4921H59.8282V44.8265L60.4627 45.462H61.6523L62.2868 44.8265V41.6969L61.7951 41.2044H59.8599L58.8447 40.1877V36.5179L60.0027 35.3582H62.1282L63.2861 36.5179V38.186H62.2551V36.8674L61.6206 36.232H60.5102L59.8758 36.8674V39.8382L60.3675 40.3307H62.3027L63.3179 41.3474V45.1601L62.1599 46.3198H59.9551Z" fill="#FBF9EF"/>
<path d="M66.3396 46.3198V35.3582H67.3706V40.3942H69.8769V35.3582H70.9079V46.3198H69.8769V41.3792H67.3706V46.3198H66.3396Z" fill="#FBF9EF"/>
<path d="M75.2616 46.3198L73.5326 35.3582H74.5954L76.0547 45.4461L77.4982 35.3582H78.4975L76.8002 46.3198H75.2616Z" fill="#FBF9EF"/>
<path d="M80.6395 46.3198V45.5255H81.9402V36.1526H80.6395V35.3582H84.2561V36.1526H82.9713V45.5255H84.2561V46.3198H80.6395Z" fill="#FBF9EF"/>
<path d="M87.1167 46.3198V35.3582H88.1477V45.4461H90.6857V46.3198H87.1167Z" fill="#FBF9EF"/>
<path d="M93.3816 46.3198V35.3582H94.4126V45.4461H96.9506V46.3198H93.3816Z" fill="#FBF9EF"/>
<path d="M99.6462 46.3198V35.3582H103.533V36.232H100.677V40.3624H103.326V41.2362H100.677V45.4461H103.564V46.3198H99.6462Z" fill="#FBF9EF"/>
</svg>
