<svg width="81" height="38" viewBox="0 0 81 38" fill="none" xmlns="http://www.w3.org/2000/svg">
<path d="M61.8325 0.0200195H19.4868C9.09264 0.0200195 0.666504 8.44616 0.666504 18.8403C0.666504 29.2345 9.09264 37.6606 19.4868 37.6606H61.8325C72.2266 37.6606 80.6528 29.2345 80.6528 18.8403C80.6528 8.44616 72.2266 0.0200195 61.8325 0.0200195Z" fill="#D94528"/>
<path fill-rule="evenodd" clip-rule="evenodd" d="M39.7623 16.7773C41.1064 16.7773 42.2445 15.6283 42.2445 14.2192C42.2445 12.6801 41.0955 11.8021 39.914 11.8021C39.1661 11.8021 38.5158 12.1598 38.4291 12.214C38.7976 10.8375 40.5752 9.97036 41.0847 9.79693C41.3015 9.73191 41.3449 9.61259 41.2907 9.48254L41.0955 9.01648C41.0522 8.89721 40.9547 8.8431 40.8137 8.88639C39.7949 9.27667 37.1175 10.5448 37.1175 13.6556C37.1175 15.379 37.9739 16.7773 39.7623 16.7773ZM33.5516 16.7773C35.1341 16.7773 36.1095 15.8125 36.1095 14.5986C36.1095 13.5581 35.2858 13.016 34.7655 12.7992V12.7668C35.2641 12.5283 35.9144 11.878 35.9144 11.0217C35.9144 9.76437 34.874 8.97308 33.5732 8.97308C32.3592 8.97308 31.5138 9.95954 31.5138 9.95954C31.4379 10.0354 31.4271 10.1763 31.5138 10.2522L31.9257 10.6207C32.0233 10.7074 32.1532 10.6856 32.2183 10.599C32.435 10.3497 32.8362 9.97036 33.5082 9.97036C34.1693 9.97036 34.7871 10.4364 34.7871 11.1843C34.7871 11.8454 34.2561 12.3657 33.2047 12.3657H32.5868C32.4242 12.3657 32.3592 12.4416 32.3592 12.6043V13.0811C32.3592 13.2437 32.4459 13.3195 32.576 13.3195H33.1939C34.397 13.3195 34.9606 13.8507 34.9606 14.5769C34.9606 15.444 34.2887 15.8343 33.5624 15.8343C32.8146 15.8343 32.3918 15.4982 32.0449 15.1405C31.9582 15.043 31.8497 15.0214 31.7414 15.1188L31.3079 15.5198C31.232 15.5849 31.232 15.7042 31.2971 15.7908C31.5463 16.0727 32.2075 16.7773 33.5516 16.7773ZM38.2015 13.5689C38.1148 14.5011 38.5266 15.7802 39.7406 15.7802C40.5752 15.7802 41.2147 15.0756 41.2147 14.2301C41.2147 13.3955 40.5644 12.7127 39.7298 12.7127C38.9278 12.7127 38.3641 13.2872 38.2015 13.5689ZM45.9188 16.7773C47.6748 16.7773 48.6829 15.314 48.6829 12.8751C48.6829 10.4255 47.6748 8.97308 45.9188 8.97308C44.1629 8.97308 43.155 10.4255 43.155 12.8751C43.155 15.314 44.1629 16.7773 45.9188 16.7773ZM44.2822 12.8753C44.2822 14.7287 44.8784 15.7692 45.9188 15.7692C46.9595 15.7692 47.5557 14.7287 47.5557 12.8753C47.5557 11.0434 46.9595 10.0029 45.9188 10.0029C44.8784 10.0029 44.2822 11.0434 44.2822 12.8753ZM50.9591 11.8996C51.7611 11.8996 52.4224 11.2493 52.4224 10.4364C52.4224 9.62341 51.7611 8.97308 50.9591 8.97308C50.1462 8.97308 49.4958 9.62341 49.4958 10.4364C49.4958 11.2493 50.1462 11.8996 50.9591 11.8996ZM50.2328 10.4364C50.2328 10.8159 50.5797 11.1626 50.9591 11.1626C51.3168 11.1626 51.6528 10.8159 51.6528 10.4364C51.6528 10.0788 51.3168 9.74273 50.9591 9.74273C50.5797 9.74273 50.2328 10.0788 50.2328 10.4364Z" fill="#FBF9EF"/>
<path fill-rule="evenodd" clip-rule="evenodd" d="M50.7075 23.6688C51.1572 23.2607 51.2461 22.9595 51.2461 22.7826C51.2461 22.6057 51.1572 22.3045 50.7075 21.8965C50.2576 21.4883 49.5411 21.0667 48.5557 20.6886C46.5928 19.9352 43.8015 19.4443 40.6597 19.4443C37.5179 19.4443 34.7266 19.9352 32.7636 20.6886C31.7783 21.0667 31.0617 21.4883 30.6118 21.8965C30.1622 22.3045 30.0732 22.6057 30.0732 22.7826C30.0732 22.9595 30.1622 23.2607 30.6118 23.6688C31.0617 24.077 31.7783 24.4985 32.7636 24.8767C34.2156 25.4339 36.1209 25.8476 38.286 26.0251L37.2417 24.5675L38.1977 23.8824L40.2531 26.7508L37.3846 28.8062L36.6995 27.85L37.6757 27.1506C32.6243 26.6437 28.897 24.8802 28.897 22.7826C28.897 20.2894 34.1634 18.2681 40.6597 18.2681C47.156 18.2681 52.4223 20.2894 52.4223 22.7826C52.4223 25.0195 48.1835 26.8765 42.6204 27.2347V26.0559C44.9562 25.8992 47.0121 25.4691 48.5557 24.8767C49.5411 24.4985 50.2576 24.077 50.7075 23.6688Z" fill="#FBF9EF"/>
</svg>
